<svg width="122" height="40" viewBox="0 0 122 40" fill="none" xmlns="http://www.w3.org/2000/svg">
<path d="M111.762 0.000128595H9.67552C9.3034 0.000128595 8.93575 0.000128595 8.56462 0.00210698C8.25395 0.00408536 7.94575 0.00983255 7.63209 0.0146697C6.95069 0.0224861 6.27089 0.080922 5.59859 0.18947C4.92725 0.30038 4.27693 0.509478 3.66964 0.809692C3.06309 1.11245 2.50886 1.50584 2.02708 1.97561C1.54276 2.44406 1.13904 2.98552 0.831453 3.57918C0.523013 4.17165 0.30914 4.80654 0.197221 5.46192C0.0842371 6.11648 0.0234396 6.77858 0.0153738 7.44228C0.00595671 7.74557 0.00496223 8.04986 0 8.35319V31.2176C0.00496223 31.5247 0.00595671 31.8223 0.0153738 32.1295C0.023442 32.7932 0.0842396 33.4553 0.197221 34.1098C0.308831 34.7655 0.522717 35.4008 0.831453 35.9935C1.1389 36.5852 1.54268 37.1245 2.02708 37.5903C2.50704 38.0622 3.06162 38.4559 3.66964 38.7563C4.27692 39.0573 4.92717 39.2677 5.59859 39.3803C6.271 39.488 6.95073 39.5464 7.63209 39.5552C7.94575 39.5619 8.25395 39.5658 8.56462 39.5658C8.93574 39.5677 9.30342 39.5677 9.67552 39.5677H111.762C112.126 39.5677 112.497 39.5677 112.862 39.5658C113.171 39.5658 113.488 39.5619 113.797 39.5552C114.477 39.5469 115.156 39.4884 115.827 39.3803C116.5 39.2669 117.153 39.0566 117.763 38.7563C118.371 38.4557 118.925 38.062 119.404 37.5903C119.887 37.1227 120.292 36.5838 120.603 35.9935C120.91 35.4004 121.121 34.7652 121.231 34.1098C121.345 33.4552 121.408 32.7933 121.42 32.1295C121.424 31.8223 121.424 31.5247 121.424 31.2176C121.432 30.8582 121.432 30.5008 121.432 30.1356V9.43318C121.432 9.07092 121.432 8.71157 121.424 8.35319C121.424 8.04986 121.424 7.74557 121.42 7.44224C121.408 6.77848 121.345 6.11653 121.231 5.46188C121.121 4.80688 120.909 4.17204 120.603 3.57914C119.977 2.38922 118.984 1.42063 117.763 0.809603C117.153 0.510123 116.5 0.30108 115.827 0.18938C115.156 0.0803547 114.477 0.0218985 113.797 0.0145312C113.488 0.00970396 113.171 0.0039073 112.862 0.00197838C112.497 0 112.126 0.000128595 111.762 0.000128595Z" fill="black"/>
<path d="M8.56977 38.7022C8.26059 38.7022 7.95888 38.6983 7.65213 38.6916C7.01666 38.6835 6.38267 38.6296 5.75538 38.5302C5.17045 38.432 4.60382 38.2494 4.07416 37.9883C3.54937 37.7293 3.07071 37.3898 2.65653 36.9827C2.23635 36.5803 1.88654 36.1137 1.62094 35.6012C1.35243 35.0855 1.16659 34.5326 1.06992 33.962C0.965529 33.3488 0.909047 32.7288 0.900965 32.1072C0.894531 31.8986 0.886108 31.204 0.886108 31.204V8.35315C0.886108 8.35315 0.895079 7.66921 0.901015 7.46828C0.908754 6.84774 0.964908 6.22868 1.06899 5.61645C1.16584 5.04422 1.35181 4.48978 1.62048 3.97231C1.88509 3.46022 2.23297 2.99324 2.65061 2.58947C3.06779 2.18187 3.54798 1.84058 4.07367 1.57806C4.6021 1.31778 5.16767 1.1364 5.75141 1.04C6.38077 0.939658 7.01695 0.885411 7.65462 0.877709L8.57027 0.865631H112.857L113.783 0.878194C114.415 0.885513 115.046 0.939276 115.669 1.03903C116.259 1.13664 116.83 1.31929 117.365 1.58095C118.418 2.11002 119.275 2.94705 119.816 3.97473C120.08 4.48862 120.263 5.03854 120.359 5.60582C120.464 6.22308 120.523 6.84701 120.535 7.47263C120.538 7.75277 120.538 8.05368 120.538 8.35315C120.546 8.7241 120.546 9.07717 120.546 9.43314V30.1356C120.546 30.4949 120.546 30.8456 120.538 31.1992C120.538 31.5208 120.538 31.8155 120.534 32.1188C120.522 32.7333 120.464 33.3461 120.361 33.9523C120.266 34.527 120.081 35.0842 119.813 35.6042C119.545 36.1111 119.197 36.5737 118.782 36.9749C118.367 37.3842 117.888 37.7258 117.362 37.9864C116.829 38.2495 116.258 38.4328 115.669 38.5302C115.042 38.6301 114.408 38.684 113.772 38.6916C113.475 38.6983 113.164 38.7022 112.862 38.7022L111.762 38.7041L8.56977 38.7022Z" fill="white"/>
<path d="M25.3657 19.6744C25.377 18.8158 25.611 17.974 26.0458 17.2272C26.4806 16.4804 27.1021 15.853 27.8525 15.4033C27.3758 14.7397 26.7469 14.1935 26.0158 13.8082C25.2847 13.423 24.4715 13.2092 23.6408 13.1838C21.8687 13.0025 20.1508 14.2174 19.2478 14.2174C18.3274 14.2174 16.9371 13.2018 15.4399 13.2318C14.4715 13.2623 13.5278 13.5368 12.7006 14.0286C11.8734 14.5204 11.191 15.2126 10.7198 16.0379C8.67903 19.4822 10.2013 24.5443 12.1563 27.3285C13.1344 28.6918 14.2775 30.2147 15.7733 30.1607C17.237 30.1015 17.7837 29.2509 19.5505 29.2509C21.3009 29.2509 21.8138 30.1607 23.3399 30.1264C24.9105 30.1015 25.9001 28.757 26.8439 27.3807C27.5467 26.4093 28.0875 25.3357 28.4462 24.1996C27.5337 23.8234 26.755 23.1937 26.2072 22.389C25.6594 21.5842 25.3667 20.6401 25.3657 19.6744Z" fill="black"/>
<path d="M22.4831 11.3526C23.3394 10.3505 23.7613 9.06246 23.6592 7.76199C22.3508 7.89594 21.1423 8.50548 20.2744 9.46916C19.85 9.93994 19.525 10.4876 19.3179 11.0809C19.1108 11.6742 19.0257 12.3015 19.0675 12.9269C19.7219 12.9334 20.3693 12.7952 20.9609 12.5225C21.5525 12.2498 22.073 11.8498 22.4831 11.3526Z" fill="black"/>
<path d="M42.9265 26.8463H38.1232L36.9697 30.1665H34.9352L39.4848 17.8828H41.5986L46.1482 30.1665H44.079L42.9265 26.8463ZM38.6207 25.3143H42.4281L40.5511 19.9259H40.4986L38.6207 25.3143Z" fill="black"/>
<path d="M55.9737 25.689C55.9737 28.4721 54.4456 30.2601 52.1395 30.2601C51.5554 30.2899 50.9744 30.1588 50.4632 29.8816C49.9519 29.6045 49.5311 29.1927 49.2488 28.6933H49.2052V33.1292H47.3193V21.2106H49.1447V22.7002H49.1794C49.4747 22.2031 49.9026 21.7934 50.4178 21.5146C50.9329 21.2358 51.5159 21.0984 52.1048 21.1169C54.4366 21.1169 55.9737 22.9137 55.9737 25.689ZM54.0353 25.689C54.0353 23.8758 53.074 22.6838 51.6074 22.6838C50.1665 22.6838 49.1973 23.9009 49.1973 25.689C49.1973 27.4935 50.1665 28.702 51.6074 28.702C53.074 28.702 54.0353 27.5186 54.0353 25.689Z" fill="black"/>
<path d="M66.0862 25.689C66.0862 28.4721 64.5576 30.2601 62.2516 30.2601C61.6674 30.2899 61.0865 30.1588 60.5752 29.8816C60.064 29.6045 59.6432 29.1927 59.3609 28.6933H59.3172V33.1292H57.4314V21.2106H59.2568V22.7002H59.2915C59.5867 22.2031 60.0147 21.7934 60.5298 21.5146C61.0449 21.2358 61.628 21.0984 62.2169 21.1169C64.5487 21.1169 66.0862 22.9137 66.0862 25.689ZM64.1474 25.689C64.1474 23.8758 63.1861 22.6838 61.7194 22.6838C60.2785 22.6838 59.3093 23.9009 59.3093 25.689C59.3093 27.4935 60.2785 28.702 61.7194 28.702C63.1861 28.702 64.1474 27.5186 64.1474 25.689Z" fill="black"/>
<path d="M72.7681 26.7438C72.9079 27.9619 74.1218 28.7617 75.7807 28.7617C77.3703 28.7617 78.5139 27.9619 78.5139 26.8635C78.5139 25.9101 77.8242 25.3392 76.191 24.9479L74.5579 24.5644C72.2439 24.0196 71.1697 22.9647 71.1697 21.253C71.1697 19.1335 73.0645 17.6778 75.754 17.6778C78.4178 17.6778 80.2432 19.1335 80.3046 21.253H78.4009C78.2869 20.0271 77.2474 19.2871 75.7282 19.2871C74.209 19.2871 73.1695 20.0358 73.1695 21.1254C73.1695 21.9939 73.8334 22.5049 75.4577 22.8961L76.846 23.2284C79.4315 23.8244 80.5048 24.8368 80.5048 26.6336C80.5048 28.9317 78.6278 30.3711 75.641 30.3711C72.8464 30.3711 70.9595 28.9655 70.8376 26.7437L72.7681 26.7438Z" fill="black"/>
<path d="M84.5772 19.0912V21.2106H86.3243V22.6664H84.5772V27.6037C84.5772 28.3707 84.927 28.7281 85.695 28.7281C85.9024 28.7246 86.1095 28.7104 86.3154 28.6856V30.1326C85.9701 30.1955 85.6191 30.224 85.2679 30.2176C83.4078 30.2176 82.6824 29.5366 82.6824 27.7997V22.6664H81.3466V21.2106H82.6824V19.0912H84.5772Z" fill="black"/>
<path d="M87.3351 25.6891C87.3351 22.8713 89.0376 21.1006 91.6925 21.1006C94.3562 21.1006 96.0508 22.8712 96.0508 25.6891C96.0508 28.5147 94.3651 30.2776 91.6925 30.2776C89.0207 30.2776 87.3351 28.5147 87.3351 25.6891ZM94.1293 25.6891C94.1293 23.7561 93.2205 22.6153 91.6924 22.6153C90.1643 22.6153 89.2556 23.7648 89.2556 25.6891C89.2556 27.6298 90.1643 28.762 91.6924 28.762C93.2205 28.762 94.1293 27.6298 94.1293 25.6891Z" fill="black"/>
<path d="M97.6057 21.2107H99.4044V22.735H99.448C99.5697 22.2589 99.8558 21.8382 100.258 21.5436C100.661 21.2489 101.155 21.0983 101.658 21.117C101.875 21.1162 102.092 21.1392 102.304 21.1856V22.9051C102.03 22.8233 101.743 22.7858 101.457 22.794C101.183 22.7831 100.91 22.8302 100.656 22.932C100.403 23.0338 100.175 23.1878 99.9879 23.3836C99.8012 23.5793 99.6602 23.8121 99.5745 24.066C99.4888 24.3199 99.4605 24.5889 99.4916 24.8545V30.1665H97.6057L97.6057 21.2107Z" fill="black"/>
<path d="M110.999 27.5361C110.746 29.1619 109.121 30.2776 107.043 30.2776C104.371 30.2776 102.712 28.5321 102.712 25.7316C102.712 22.9225 104.379 21.1006 106.964 21.1006C109.506 21.1006 111.104 22.8027 111.104 25.5181V26.148H104.615V26.2591C104.585 26.5887 104.628 26.9207 104.74 27.2331C104.851 27.5455 105.03 27.8312 105.264 28.0711C105.498 28.3111 105.781 28.4998 106.095 28.6247C106.41 28.7496 106.748 28.808 107.087 28.7958C107.533 28.8365 107.98 28.7359 108.362 28.5089C108.744 28.282 109.041 27.9408 109.209 27.5361L110.999 27.5361ZM104.624 24.8632H109.217C109.234 24.5668 109.188 24.2703 109.082 23.9921C108.976 23.7139 108.812 23.4601 108.6 23.2467C108.389 23.0333 108.134 22.8648 107.852 22.7518C107.571 22.6388 107.268 22.5838 106.964 22.5902C106.657 22.5884 106.352 22.6459 106.068 22.7594C105.784 22.8729 105.526 23.0401 105.308 23.2515C105.091 23.4628 104.918 23.714 104.801 23.9906C104.684 24.2673 104.623 24.5638 104.624 24.8632Z" fill="black"/>
<path d="M39.5634 12.972H37.2554L36.6975 14.5389H35.7323L37.9194 8.6366H38.9302L41.1163 14.5389H40.1174L39.5634 12.972ZM37.4953 12.2031H39.3246L38.4476 9.70789H38.3762L37.4953 12.2031Z" fill="black"/>
<path d="M43.1619 8.97549V10.1048H44.1519V10.8452H43.1619V13.1356C43.1619 13.6022 43.3591 13.8065 43.808 13.8065C43.9229 13.8061 44.0377 13.7994 44.1519 13.7862V14.5184C43.9899 14.5467 43.8259 14.5617 43.6613 14.5634C42.6585 14.5634 42.2591 14.2194 42.2591 13.3607V10.8452H41.5337V10.1047H42.2591V8.97549H43.1619Z" fill="black"/>
<path d="M46.9438 9.99863C47.9715 9.99863 48.6433 10.4647 48.7315 11.2501H47.8664C47.7832 10.9231 47.4552 10.7144 46.9438 10.7144C46.4404 10.7144 46.0579 10.9473 46.0579 11.295C46.0579 11.5611 46.2888 11.7288 46.7843 11.8394L47.5434 12.0108C48.4125 12.2074 48.8197 12.5716 48.8197 13.2261C48.8197 14.0646 48.0181 14.6248 46.927 14.6248C45.8398 14.6248 45.1313 14.1462 45.051 13.3569H45.9538C46.0316 13.5448 46.1719 13.7017 46.3521 13.8025C46.5324 13.9033 46.7422 13.9422 46.9478 13.9129C47.5097 13.9129 47.909 13.6676 47.909 13.3115C47.909 13.0459 47.695 12.8739 47.2371 12.7677L46.4404 12.5875C45.5713 12.3871 45.169 12.007 45.169 11.3443C45.169 10.5546 45.9112 9.99863 46.9438 9.99863Z" fill="black"/>
<path d="M49.9168 8.76747C49.9098 8.65362 49.9381 8.54035 49.998 8.44234C50.0578 8.34433 50.1465 8.26609 50.2525 8.21777C50.3584 8.16944 50.4769 8.15325 50.5924 8.17129C50.7079 8.18934 50.8153 8.24078 50.9005 8.31896C50.9857 8.39714 51.0448 8.49846 51.0702 8.60979C51.0957 8.72112 51.0862 8.83733 51.0432 8.94337C51.0001 9.04941 50.9253 9.14039 50.8285 9.20453C50.7318 9.26867 50.6175 9.30302 50.5005 9.30312C50.4257 9.30684 50.3509 9.29577 50.2806 9.2706C50.2104 9.24542 50.146 9.20665 50.0915 9.15661C50.037 9.10658 49.9934 9.04631 49.9634 8.97944C49.9333 8.91256 49.9175 8.84046 49.9168 8.76747ZM50.0506 10.0846H50.9494V14.5389H50.0506L50.0506 10.0846Z" fill="black"/>
<path d="M54.0745 9.99863C55.1022 9.99863 55.7741 10.4647 55.8623 11.2501H54.9972C54.9139 10.9231 54.5859 10.7144 54.0745 10.7144C53.5711 10.7144 53.1886 10.9473 53.1886 11.295C53.1886 11.5611 53.4195 11.7288 53.915 11.8394L54.6741 12.0108C55.5432 12.2074 55.9505 12.5716 55.9505 13.2261C55.9505 14.0646 55.1488 14.6248 54.0577 14.6248C52.9706 14.6248 52.262 14.1462 52.1818 13.3569H53.0846C53.1623 13.5448 53.3026 13.7017 53.4829 13.8025C53.6631 13.9033 53.8729 13.9422 54.0785 13.9129C54.6404 13.9129 55.0398 13.6676 55.0398 13.3115C55.0398 13.0459 54.8257 12.8739 54.3679 12.7677L53.5711 12.5875C52.702 12.3871 52.2996 12.007 52.2996 11.3443C52.2997 10.5546 53.0419 9.99863 54.0745 9.99863Z" fill="black"/>
<path d="M57.0474 8.76747C57.0405 8.65362 57.0687 8.54035 57.1286 8.44234C57.1884 8.34433 57.2771 8.26609 57.3831 8.21777C57.4891 8.16944 57.6075 8.15325 57.723 8.17129C57.8386 8.18934 57.9459 8.24078 58.0311 8.31896C58.1163 8.39714 58.1754 8.49846 58.2009 8.60979C58.2263 8.72112 58.2169 8.83733 58.1738 8.94337C58.1307 9.04941 58.0559 9.14039 57.9592 9.20453C57.8624 9.26867 57.7481 9.30302 57.6311 9.30312C57.5563 9.30684 57.4815 9.29577 57.4113 9.2706C57.341 9.24542 57.2766 9.20665 57.2221 9.15661C57.1676 9.10658 57.124 9.04631 57.094 8.97944C57.064 8.91256 57.0481 8.84046 57.0474 8.76747ZM57.1822 10.0846H58.08V14.5389H57.1822V10.0846Z" fill="black"/>
<path d="M62.8201 16.3676C62.6906 16.3832 62.5592 16.3727 62.434 16.3367C62.3089 16.3006 62.1927 16.2398 62.0928 16.1581C61.9928 16.0763 61.9112 15.9753 61.853 15.8615C61.7949 15.7476 61.7614 15.6233 61.7548 15.4963C61.7698 15.2788 61.8502 15.0706 61.9859 14.8974C62.1216 14.7242 62.3066 14.5939 62.5179 14.5225V13.8314H62.4465C62.331 14.0881 62.1355 14.303 61.8877 14.4454C61.64 14.5878 61.3525 14.6506 61.0661 14.6249C60.8451 14.6402 60.6234 14.6071 60.4172 14.5279C60.2111 14.4487 60.0258 14.3256 59.8749 14.1675C59.7239 14.0094 59.6112 13.8204 59.5451 13.6143C59.4789 13.4081 59.4609 13.1902 59.4924 12.9764V10.0847H60.3952V12.7475C60.3952 13.4672 60.6925 13.8111 61.3554 13.8111C61.5092 13.8253 61.6642 13.8059 61.8092 13.7542C61.9543 13.7026 62.0857 13.6201 62.1938 13.5127C62.302 13.4053 62.3842 13.2757 62.4344 13.1333C62.4846 12.991 62.5016 12.8396 62.4842 12.69V10.0847H63.387V14.5389L63.2988 14.5636C62.8499 14.7147 62.5476 15.0012 62.5476 15.3161C62.5493 15.3738 62.5635 15.4305 62.5891 15.4826C62.6148 15.5346 62.6513 15.5809 62.6964 15.6183C62.7415 15.6557 62.7942 15.6835 62.851 15.6998C62.9078 15.7161 62.9675 15.7207 63.0262 15.7131C63.122 15.717 63.2178 15.7073 63.3107 15.6841V16.2898C63.1533 16.3446 62.9871 16.371 62.8201 16.3676Z" fill="black"/>
<path d="M66.4936 9.99863C67.5212 9.99863 68.1931 10.4647 68.2813 11.2501H67.4162C67.3329 10.9231 67.0049 10.7144 66.4936 10.7144C65.9901 10.7144 65.6071 10.9473 65.6071 11.295C65.6071 11.5611 65.838 11.7288 66.334 11.8394L67.093 12.0108C67.9621 12.2074 68.3694 12.5716 68.3694 13.2261C68.3694 14.0646 67.5678 14.6248 66.4767 14.6248C65.389 14.6248 64.6805 14.1462 64.6002 13.3569H65.503C65.5809 13.5449 65.7212 13.7018 65.9016 13.8026C66.0819 13.9034 66.2918 13.9423 66.4975 13.9129C67.0594 13.9129 67.4588 13.6676 67.4588 13.3115C67.4588 13.0459 67.2447 12.8739 66.7869 12.7677L65.9901 12.5875C65.1205 12.3871 64.7182 12.007 64.7182 11.3443C64.7182 10.5546 65.4604 9.99863 66.4936 9.99863Z" fill="black"/>
<path d="M72.4133 10.0846H73.4786L71.5987 11.9944L73.6044 14.5389H72.4965L70.9277 12.5755L70.5284 12.9435V14.5389H69.6266V8.34583H70.5284V11.9413H70.5997L72.4133 10.0846Z" fill="black"/>
<path d="M74.4411 8.76747C74.4341 8.65362 74.4624 8.54035 74.5223 8.44234C74.5821 8.34433 74.6708 8.26609 74.7768 8.21777C74.8827 8.16944 75.0012 8.15325 75.1167 8.17129C75.2322 8.18934 75.3396 8.24078 75.4247 8.31896C75.5099 8.39714 75.5691 8.49846 75.5945 8.60979C75.62 8.72112 75.6105 8.83733 75.5674 8.94337C75.5243 9.04941 75.4496 9.14039 75.3528 9.20453C75.2561 9.26867 75.1418 9.30302 75.0248 9.30312C74.95 9.30684 74.8752 9.29577 74.8049 9.2706C74.7346 9.24542 74.6703 9.20665 74.6158 9.15661C74.5613 9.10658 74.5177 9.04631 74.4877 8.97944C74.4576 8.91256 74.4418 8.84046 74.4411 8.76747ZM74.5749 10.0846H75.4737V14.5389H74.5749V10.0846Z" fill="black"/>
<path d="M78.1489 8.97549V10.1048H79.1389V10.8452H78.1489V13.1356C78.1489 13.6022 78.3462 13.8065 78.7951 13.8065C78.91 13.8061 79.0248 13.7994 79.1389 13.7862V14.5184C78.977 14.5467 78.8129 14.5617 78.6484 14.5634C77.6455 14.5634 77.2461 14.2194 77.2461 13.3607V10.8452H76.5208V10.1047H77.2461V8.97549H78.1489Z" fill="black"/>
<path d="M84.1441 13.3361C84.0216 13.7432 83.7561 14.0953 83.3942 14.3309C83.0322 14.5665 82.5968 14.6705 82.1641 14.6248C81.8631 14.6325 81.5639 14.5763 81.2874 14.46C81.0108 14.3438 80.7636 14.1703 80.5627 13.9515C80.3619 13.7328 80.2123 13.474 80.1243 13.1933C80.0364 12.9125 80.0121 12.6165 80.0533 12.3257C80.0132 12.034 80.0379 11.7373 80.1257 11.4557C80.2134 11.1741 80.3622 10.9142 80.562 10.6935C80.7618 10.4728 81.0079 10.2966 81.2836 10.1767C81.5593 10.0568 81.8582 9.99604 82.1601 9.99855C83.4316 9.99855 84.1986 10.8453 84.1986 12.244V12.5508H80.972V12.6C80.9578 12.7635 80.9789 12.928 81.0338 13.0831C81.0888 13.2381 81.1763 13.3803 81.2909 13.5004C81.4055 13.6206 81.5445 13.716 81.6992 13.7807C81.8538 13.8454 82.0206 13.8779 82.1889 13.8761C82.4046 13.9013 82.6231 13.8635 82.8167 13.7673C83.0103 13.6711 83.1702 13.521 83.276 13.3361L84.1441 13.3361ZM80.9719 11.9006H83.2799C83.2913 11.7511 83.2705 11.601 83.2187 11.4598C83.167 11.3186 83.0856 11.1896 82.9797 11.0809C82.8738 10.9722 82.7457 10.8863 82.6037 10.8288C82.4617 10.7713 82.3089 10.7433 82.1552 10.7467C81.9992 10.7448 81.8444 10.7734 81.6999 10.8307C81.5555 10.888 81.4242 10.9729 81.314 11.0805C81.2037 11.188 81.1166 11.316 81.0579 11.4568C80.9991 11.5977 80.9699 11.7486 80.9719 11.9006Z" fill="black"/>
<path d="M87.77 8.76747C87.763 8.65362 87.7913 8.54035 87.8511 8.44234C87.911 8.34433 87.9996 8.26609 88.1056 8.21777C88.2116 8.16944 88.33 8.15325 88.4456 8.17129C88.5611 8.18934 88.6684 8.24078 88.7536 8.31896C88.8388 8.39714 88.8979 8.49846 88.9234 8.60979C88.9488 8.72112 88.9394 8.83733 88.8963 8.94337C88.8532 9.04941 88.7784 9.14039 88.6817 9.20453C88.5849 9.26867 88.4707 9.30302 88.3536 9.30312C88.2789 9.30684 88.2041 9.29577 88.1338 9.2706C88.0635 9.24542 87.9992 9.20665 87.9446 9.15661C87.8901 9.10658 87.8465 9.04631 87.8165 8.97944C87.7865 8.91256 87.7707 8.84046 87.77 8.76747ZM87.9037 10.0846H88.8026V14.5389H87.9037V10.0846Z" fill="black"/>
<path d="M91.9282 9.99862C92.9558 9.99862 93.6277 10.4647 93.7159 11.2501H92.8508C92.7676 10.9231 92.4395 10.7144 91.9282 10.7144C91.4248 10.7144 91.0423 10.9472 91.0423 11.295C91.0423 11.5611 91.2732 11.7287 91.7687 11.8393L92.5277 12.0108C93.3968 12.2074 93.8041 12.5716 93.8041 13.226C93.8041 14.0645 93.0024 14.6248 91.9113 14.6248C90.8242 14.6248 90.1157 14.1462 90.0354 13.3569H90.9382C91.016 13.5448 91.1563 13.7017 91.3365 13.8025C91.5168 13.9033 91.7265 13.9422 91.9322 13.9129C92.494 13.9129 92.8934 13.6675 92.8934 13.3115C92.8934 13.0459 92.6794 12.8739 92.2215 12.7677L91.4248 12.5875C90.5557 12.3871 90.1533 12.0069 90.1533 11.3443C90.1533 10.5546 90.8956 9.99862 91.9282 9.99862ZM91.4367 9.47504L90.2623 8.05984H91.1939L91.8945 8.95533H91.9619L92.6625 8.05984H93.5901L92.4187 9.47504H91.4367Z" fill="black"/>
</svg>
