<svg width="24" height="24" viewBox="0 0 24 24" fill="none" xmlns="http://www.w3.org/2000/svg">
<g id="Group 61172">
<circle id="Ellipse 2" cx="12" cy="12" r="12" fill="#FFFAEB"/>
<path id="Vector" d="M16.625 9.75L12.125 12.5625L7.625 9.75V8.625L12.125 11.4375L16.625 8.625M16.625 7.5H7.625C7.00063 7.5 6.5 8.00063 6.5 8.625V15.375C6.5 15.6734 6.61853 15.9595 6.8295 16.1705C7.04048 16.3815 7.32663 16.5 7.625 16.5H16.625C16.9234 16.5 17.2095 16.3815 17.4205 16.1705C17.6315 15.9595 17.75 15.6734 17.75 15.375V8.625C17.75 8.32663 17.6315 8.04048 17.4205 7.8295C17.2095 7.61853 16.9234 7.5 16.625 7.5Z" fill="#233F54"/>
</g>
</svg>
