<svg width="200" height="50" viewBox="0 0 200 50" fill="none" xmlns="http://www.w3.org/2000/svg">
<g id="Group 61165">
<g id="Group">
<g id="Group_2">
<path id="Vector" d="M186.357 37.8531L186.381 37.8062L185.559 36.5382H185.535L184.831 37.6888V37.7123L186.357 37.8531ZM184.643 33.462L184.619 33.509L185.512 35.1292H185.559L186.357 33.5559L186.334 33.509L184.643 33.462ZM183.938 33.7673L183.915 33.7907L184.032 37.5009L184.056 37.5244L185.042 35.7867V35.7398L183.938 33.7673ZM187.273 37.6888V33.6499L187.249 33.6264L186.052 35.7867V35.8337L187.226 37.7357L187.273 37.6888ZM181.567 23.2942H181.52C181.543 23.9517 181.59 25.0789 181.59 25.0789L182.107 25.9947C182.295 26.3 183.68 32.8515 183.68 32.8515L185.418 31.9826C185.253 31.7713 185.159 31.4895 185.159 31.1842C185.159 31.0433 185.183 30.9259 185.206 30.8085C185.136 30.785 184.713 30.7381 184.643 30.6207C184.572 30.4798 184.525 29.1178 184.69 28.7891C184.666 28.7421 184.619 28.6716 184.572 28.5777C184.338 28.249 183.328 27.1453 183.351 26.9575C183.351 26.7931 183.539 26.5583 183.539 26.5583L181.567 23.2942ZM172.62 42.9957C172.597 42.9018 172.409 41.305 172.385 40.9058C170.53 40.7414 169.661 40.5771 169.426 40.2953C169.168 39.99 171.54 25.5485 171.728 25.2902C171.845 25.1258 172.432 24.6797 172.479 24.5153C172.526 24.3744 172.503 21.3922 172.479 20.6642H172.385C172.268 20.6642 169.145 23.7404 168.111 23.623C167.384 23.5525 166.585 23.1064 166.186 22.8716L167.806 48.4671C169.567 49.0071 171.399 49.3594 173.301 49.5003L173.841 48.6314L173.865 47.246L173.113 43.254C173.113 43.254 172.667 43.1131 172.62 42.9957ZM175.203 0C171.516 0 168.041 0.798392 164.894 2.2308L165.81 16.6253C166.186 16.5784 166.491 16.5784 166.538 16.6253C166.656 16.7897 167.125 17.9168 167.172 18.1282C167.196 18.2456 167.149 18.3865 167.055 18.5274C167.501 18.6448 168.276 18.8796 168.299 18.8796C168.299 18.8796 170.53 15.8739 171.164 15.4982C171.329 15.4043 173.113 14.6059 173.841 14.2771C173.912 14.1832 173.959 14.1127 173.982 14.0423C174.005 13.7605 174.17 12.4455 174.217 12.1168C174.24 11.8819 174.733 11.4358 174.851 11.0836C174.945 10.7313 174.921 9.01713 174.968 8.85275C175.039 8.59445 176.471 7.63168 176.847 7.39686C177.058 7.25597 178.702 7.32642 178.913 7.37338C179.618 7.51427 180.228 8.14829 180.228 8.38311C180.228 8.61793 180.158 10.9427 180.158 10.9427C180.158 11.154 180.956 12.4455 180.956 12.8447C180.956 13.2439 180.862 14.1597 180.862 14.371C180.862 14.418 180.909 14.5589 180.98 14.7233C181.496 15.0285 183.328 16.1557 183.633 16.3435C184.009 16.5784 185.159 21.8853 185.159 21.8853L186.686 24.891C186.686 24.891 187.132 24.7736 187.226 24.8441C187.343 24.938 187.461 28.3899 187.461 28.3899C187.649 28.7891 188.165 29.7753 188.165 30.1041C188.165 30.4798 187.789 30.785 187.39 31.0199C187.39 31.0903 187.414 31.1607 187.414 31.2312C187.414 31.5599 187.296 31.8652 187.108 32.0766C187.672 32.3583 188.611 32.828 188.611 32.8984C188.611 33.1098 188.635 33.2976 188.611 38.2758C188.611 38.2758 188.001 38.769 187.954 38.769C187.907 38.769 185.864 38.6515 184.549 38.5576C184.643 39.5204 184.69 40.3188 184.619 40.5536C184.032 40.8354 182.506 40.9997 181.473 41.0702C181.261 41.8451 180.58 44.2403 180.416 44.2403C180.205 44.2403 179.993 44.2403 179.993 44.2403C179.993 44.2403 178.702 46.0719 178.702 46.2597C178.702 46.4241 179.172 48.0209 179.172 48.0209L180.416 49.0776C191.617 46.6824 200 36.7495 200 24.8441C200 11.107 188.893 0 175.203 0Z" fill="#FFFAEB"/>
<path id="Vector_2" d="M163.72 21.2044C163.415 20.9226 162.851 19.6546 162.898 18.9031C162.922 18.1987 163.391 17.3768 163.532 17.1185C163.579 17.0715 163.72 17.0011 163.931 16.9306L163.039 3.02924C155.337 7.23253 150.124 15.4043 150.124 24.7971C150.124 35.2936 156.652 44.2403 165.88 47.8566L164.213 21.4392C164.025 21.3922 163.837 21.3218 163.72 21.2044Z" fill="#FFFAEB"/>
</g>
<g id="Group_3">
<path id="Vector_3" d="M78.5472 13.0089C79.6039 13.0089 80.4257 13.8543 80.4257 14.8875C80.4257 15.9442 79.5804 16.7426 78.5472 16.7426C77.4905 16.7426 76.6921 15.9442 76.6921 14.8875C76.6921 13.8308 77.5139 13.0089 78.5472 13.0089Z" fill="#FFFAEB"/>
<path id="Vector_4" d="M77.139 20.4296C77.139 20.1478 77.3739 19.8895 77.6556 19.8895H79.4403C79.7221 19.8895 79.9804 20.1243 79.9804 20.4296V33.9787H77.6556C77.3739 33.9787 77.139 33.7439 77.139 33.4386V20.4296Z" fill="#FFFAEB"/>
<path id="Vector_5" d="M103.369 13.0089C104.425 13.0089 105.247 13.8543 105.247 14.8875C105.247 15.9442 104.402 16.7426 103.369 16.7426C102.312 16.7426 101.514 15.9442 101.514 14.8875C101.514 13.8308 102.336 13.0089 103.369 13.0089Z" fill="#FFFAEB"/>
<path id="Vector_6" d="M101.959 20.4296C101.959 20.1478 102.194 19.8895 102.499 19.8895H104.283C104.565 19.8895 104.824 20.1243 104.824 20.4296V33.9787H102.499C102.217 33.9787 101.959 33.7439 101.959 33.4386V20.4296Z" fill="#FFFAEB"/>
<path id="Vector_7" d="M97.0275 12.7037H95.2428C94.961 12.7037 94.7027 12.9386 94.7027 13.2438V21.1338C93.4347 20.0771 91.9084 19.6075 90.382 19.6075C89.067 19.6075 87.8929 19.9362 86.9302 20.4998C84.7933 21.7678 83.3139 24.116 83.3139 26.9339C83.3139 29.7517 84.7698 32.0765 86.9067 33.3445C87.8694 33.9081 89.1844 34.2838 90.429 34.2838C92.0962 34.2838 93.6225 33.7202 94.7732 32.687V33.4384C94.7732 33.7202 95.008 33.9785 95.3133 33.9785H97.5441V13.2438C97.5675 12.9386 97.3092 12.7037 97.0275 12.7037ZM94.7262 29.5639C93.7634 30.8554 92.3075 31.5833 90.8517 31.5833C88.1277 31.5833 86.1787 29.4465 86.1787 26.9339C86.1787 24.4683 87.9634 22.2844 90.7108 22.2844C92.425 22.2844 93.8574 23.1533 94.7262 24.2804V29.5639Z" fill="#FFFAEB"/>
<path id="Vector_8" d="M121.851 19.8896H120.16C119.878 19.8896 119.62 20.1244 119.62 20.4296V21.1811C118.329 20.0774 116.802 19.5843 115.206 19.5843C113.891 19.5843 112.716 19.913 111.754 20.4766C109.64 21.7446 108.137 24.0929 108.137 26.9107C108.137 29.7286 109.593 32.0533 111.73 33.3213C112.693 33.8849 114.008 34.2606 115.252 34.2606C116.92 34.2606 118.376 33.7205 119.503 32.7343V33.5092C119.503 35.2703 119.221 36.3505 118.728 37.1254C118.047 38.1821 116.849 38.7457 115.323 38.7457C113.233 38.7457 111.941 37.7829 110.979 36.5853C110.791 36.421 110.509 36.4444 110.321 36.6088C110.298 36.6323 110.274 36.6558 110.274 36.6558L108.631 38.1821C109.523 39.591 111.824 41.4461 115.487 41.4461C118.282 41.4461 120.419 40.1546 121.569 37.9708C122.133 36.8671 122.415 35.4582 122.415 33.3683V20.4296C122.368 20.1244 122.133 19.8896 121.851 19.8896ZM119.526 29.5642C118.563 30.8557 117.108 31.5836 115.652 31.5836C112.928 31.5836 110.979 29.4468 110.979 26.9342C110.979 24.4686 112.763 22.2847 115.487 22.2847C117.201 22.2847 118.634 23.1536 119.503 24.2807V29.5642H119.526Z" fill="#FFFAEB"/>
<path id="Vector_9" d="M43.1137 26.9337C43.1137 22.7774 40.2724 19.6073 36.3509 19.6073C32.3589 19.6073 29.4941 22.7304 29.4941 26.9337C29.4941 31.137 32.6642 34.2601 36.7735 34.2601C39.6383 34.2601 41.6578 32.9686 42.7145 31.6301L41.1647 30.1508C40.9768 30.0333 40.7655 30.0568 40.6011 30.1508C40.5307 30.1977 40.4367 30.2917 40.4367 30.2917C39.6618 31.0666 38.5817 31.771 36.8205 31.771C34.3549 31.771 32.4293 29.8925 32.265 27.5208H42.5736C42.8554 27.5208 43.1137 27.3094 43.1372 27.0511C43.1137 27.0511 43.1137 26.9572 43.1137 26.9337ZM32.4763 25.1256C32.9459 23.294 34.6132 22.0729 36.4213 22.0729C38.0885 22.0729 39.7088 23.341 40.1315 25.1256H32.4763Z" fill="#FFFAEB"/>
<path id="Vector_10" d="M139.296 26.9337C139.296 22.7774 136.454 19.6073 132.533 19.6073C128.541 19.6073 125.676 22.7304 125.676 26.9337C125.676 31.137 128.846 34.2601 132.956 34.2601C135.82 34.2601 137.84 32.9686 138.873 31.6301L137.323 30.1508C137.135 30.0333 136.924 30.0568 136.76 30.1508C136.689 30.1977 136.595 30.2917 136.595 30.2917C135.82 31.0666 134.764 31.771 132.979 31.771C130.513 31.771 128.564 29.8925 128.423 27.5208H138.732C139.014 27.5208 139.272 27.3094 139.296 27.0511C139.296 27.0042 139.296 26.9572 139.296 26.9337ZM128.658 25.1256C129.128 23.294 130.772 22.0729 132.603 22.0729C134.294 22.0729 135.891 23.341 136.313 25.1256H128.658Z" fill="#FFFAEB"/>
<path id="Vector_11" d="M24.7029 13.0089C25.7596 13.0089 26.5814 13.8543 26.5814 14.8875C26.5814 15.9442 25.7361 16.7426 24.7029 16.7426C23.6462 16.7426 22.8478 15.9442 22.8478 14.8875C22.8478 13.8308 23.6697 13.0089 24.7029 13.0089Z" fill="#FFFAEB"/>
<path id="Vector_12" d="M26.1356 35.1763C26.1356 37.0549 25.8772 38.229 25.2432 39.1213C24.2335 40.6007 22.5428 41.4695 20.6407 41.4695C20.0302 41.4695 19.3492 41.3756 18.9735 41.2582L19.4432 39.1683C19.5136 38.8865 19.7954 38.6986 20.0772 38.7456L20.5938 38.7691C21.3922 38.7691 22.261 38.4168 22.7541 37.7828C23.1533 37.2662 23.2942 36.5618 23.2942 35.2702V34.7302V20.4296C23.2942 20.1478 23.529 19.8895 23.8343 19.8895H25.6189C25.9007 19.8895 26.159 20.1243 26.159 20.4296V34.6362L26.1356 35.1763Z" fill="#FFFAEB"/>
<path id="Vector_13" d="M58.6359 22.0734C57.4383 20.5471 55.5832 19.5843 53.5168 19.5843C51.4738 19.5843 50.0414 20.5001 49.29 21.228V20.4296C49.29 20.1479 49.0552 19.8896 48.7734 19.8896H47.0827C46.8009 19.8896 46.5426 20.1244 46.5426 20.4296V33.4387C46.5426 33.7205 46.7774 33.9788 47.0827 33.9788H48.8673C49.1491 33.9788 49.4074 33.744 49.4074 33.4387V24.3042C50.2528 23.2945 51.5913 22.3082 53.4463 22.3082C54.6204 22.3082 55.7006 22.8483 56.3581 23.6937C56.8747 24.3277 57.2035 25.1495 57.2035 26.9577L57.227 27.4743V33.4622C57.227 33.744 57.4618 34.0023 57.767 34.0023H59.5517H60.0683V27.122C60.0213 24.6564 59.5282 23.224 58.6359 22.0734Z" fill="#FFFAEB"/>
<path id="Vector_14" d="M62.9301 32.3116C64.4799 33.5796 66.3819 34.2606 68.6127 34.2606C71.3601 34.2606 73.8492 32.6169 73.8492 29.9399C73.8492 27.0281 70.9375 26.0419 68.7301 25.4783C67.3212 25.1261 66.2175 24.7973 66.2175 23.8345C66.2175 22.7309 67.3917 22.0734 68.7771 22.0734C69.7399 22.0734 70.5852 22.4021 71.3601 22.8953C71.6184 23.0362 71.9472 22.9657 72.1116 22.7309L72.863 21.6977L72.9099 21.6272C73.1213 21.3454 73.0978 21.0871 72.8865 20.8758L72.816 20.8054C71.7593 20.0774 70.3739 19.5843 68.5892 19.5843C66.0767 19.5843 63.3762 20.9697 63.3762 23.9754C63.3762 25.9479 64.9026 27.0281 66.6167 27.5917C68.6832 28.2727 71.0314 28.3666 71.0314 29.9869C71.0314 31.0905 69.8103 31.748 68.5658 31.748C67.3212 31.748 66.0532 31.3253 64.8556 30.5269C64.6442 30.3626 64.3155 30.3861 64.1276 30.5974L62.9301 32.3116Z" fill="#FFFAEB"/>
<path id="Vector_15" d="M19.0205 21.7679C19.0205 21.4861 18.7857 21.2278 18.4804 21.2278H10.0269V23.576C10.0503 23.8578 10.2852 24.0691 10.5435 24.0691H16.0148V29.47C14.9111 30.5736 13.0795 31.419 10.8722 31.419C6.41061 31.419 3.00571 28.202 3.00571 23.482C3.00571 18.95 6.34017 15.5451 10.6139 15.5451C12.6569 15.5451 14.6293 16.3905 15.8974 17.5411C16.0852 17.7289 16.3905 17.7289 16.6018 17.5646C16.6253 17.5646 16.6253 17.5411 16.6253 17.5411H16.6018L17.8699 16.2965C17.8699 16.2965 17.8699 16.273 17.8934 16.273C18.0577 16.0852 18.0812 15.8269 17.9403 15.6155C17.9168 15.5921 17.9168 15.5686 17.8934 15.5451C17.8934 15.5451 17.8934 15.5451 17.8934 15.5216C16.0618 13.737 13.4083 12.6568 10.5904 12.6568C4.55553 12.7038 0 17.4237 0 23.482C0 29.6813 4.60249 34.2603 10.8722 34.2603C14.1127 34.2603 17.2124 32.6401 19.0205 30.3623V21.7679Z" fill="#FFFAEB"/>
</g>
</g>
</g>
</svg>
