<?xml version="1.0" encoding="UTF-8"?>
<svg fill="none" viewBox="0 0 24 24" xmlns="http://www.w3.org/2000/svg">
<rect width="24" height="24" fill="#F5F5F5"/>
<g clip-path="url(#a)">
<rect transform="translate(-1424 -491)" width="1792" height="603" fill="#fff"/>
<rect transform="translate(-1424 -491)" width="1792" height="563" fill="#233F53"/>
<path d="m12 0c-6.6275 0-12 5.3725-12 12s5.3725 12 12 12 12-5.3725 12-12-5.3725-12-12-12zm-2.9375 16.974h-2.43v-7.82h2.43v7.82zm-1.23-8.78c-0.7675 0-1.2638-0.54375-1.2638-1.2162 0-0.68625 0.51125-1.2138 1.295-1.2138s1.2638 0.5275 1.2788 1.2138c0 0.6725-0.495 1.2162-1.31 1.2162zm10.105 8.78h-2.43v-4.3338c0-1.0087-0.3525-1.6938-1.2312-1.6938-0.6713 0-1.07 0.4638-1.2463 0.9101-0.065 0.1587-0.0812 0.3837-0.0812 0.6075v4.5087h-2.4313v-5.325c0-0.9762-0.0313-1.7925-0.0638-2.495h2.1113l0.1113 1.0863h0.0487c0.32-0.51005 1.1038-1.2626 2.415-1.2626 1.5988 0 2.7975 1.0712 2.7975 3.3738v4.6238z" fill="#FFFAEB"/>
</g>
<defs>
<clipPath id="a">
<rect transform="translate(-1424 -491)" width="1792" height="603" fill="#fff"/>
</clipPath>
</defs>
</svg>