<svg width="24" height="24" viewBox="0 0 24 24" fill="none" xmlns="http://www.w3.org/2000/svg">
<g id="Group 61173">
<circle id="Ellipse 1" cx="12" cy="12" r="12" fill="#FFFAEB"/>
<path id="Vector" d="M7.125 6.25C6.95924 6.25 6.80027 6.31585 6.68306 6.43306C6.56585 6.55027 6.5 6.70924 6.5 6.875C6.5 9.69293 7.61942 12.3954 9.61199 14.388C11.6046 16.3806 14.3071 17.5 17.125 17.5C17.2908 17.5 17.4497 17.4342 17.5669 17.3169C17.6842 17.1997 17.75 17.0408 17.75 16.875V14.6875C17.75 14.5217 17.6842 14.3628 17.5669 14.2456C17.4497 14.1283 17.2908 14.0625 17.125 14.0625C16.3438 14.0625 15.5938 13.9375 14.8938 13.7063C14.7839 13.6712 14.6665 13.6667 14.5543 13.6931C14.442 13.7195 14.339 13.7759 14.2562 13.8562L12.8812 15.2313C11.107 14.3289 9.66486 12.8868 8.7625 11.1125L10.1375 9.73125C10.2203 9.65271 10.2789 9.5522 10.3066 9.4415C10.3343 9.3308 10.3298 9.2145 10.2937 9.10625C10.0567 8.38629 9.93638 7.633 9.9375 6.875C9.9375 6.70924 9.87165 6.55027 9.75444 6.43306C9.63723 6.31585 9.47826 6.25 9.3125 6.25H7.125ZM14 6.25V7.1875H16.1875L12.75 10.625L13.375 11.25L16.8125 7.8125V10H17.75V6.25H14Z" fill="#233F54"/>
</g>
</svg>
